<svg width="15" height="15" viewBox="0 0 15 15" fill="none" xmlns="http://www.w3.org/2000/svg">
<path d="M9.10489 7.57935L9.98864 12.5528C9.99854 12.6114 9.99032 12.6716 9.96508 12.7254C9.93985 12.7791 9.8988 12.8239 9.84743 12.8537C9.79606 12.8835 9.73681 12.8969 9.67761 12.8922C9.6184 12.8874 9.56207 12.8647 9.51614 12.827L7.4278 11.2596C7.32699 11.1843 7.20452 11.1436 7.07868 11.1436C6.95284 11.1436 6.83037 11.1843 6.72955 11.2596L4.63772 12.8264C4.59182 12.864 4.53556 12.8867 4.47643 12.8915C4.4173 12.8963 4.35811 12.8829 4.30677 12.8532C4.25544 12.8235 4.21438 12.7788 4.18909 12.7251C4.1638 12.6715 4.15547 12.6114 4.16522 12.5528L5.04839 7.57935" stroke="#D7D7D7" stroke-width="1.16667" stroke-linecap="round" stroke-linejoin="round"/>
<path d="M7.07666 8.22681C9.00966 8.22681 10.5767 6.6598 10.5767 4.72681C10.5767 2.79381 9.00966 1.22681 7.07666 1.22681C5.14366 1.22681 3.57666 2.79381 3.57666 4.72681C3.57666 6.6598 5.14366 8.22681 7.07666 8.22681Z" stroke="#D7D7D7" stroke-width="1.16667" stroke-linecap="round" stroke-linejoin="round"/>
</svg>
