<svg width="32" height="33" viewBox="0 0 32 33" fill="none" xmlns="http://www.w3.org/2000/svg">
<rect x="0.5" y="0.780273" width="31.5" height="31.5" rx="8.75" fill="white" fill-opacity="0.1"/>
<path d="M19.1667 23.0928V21.6344C19.1667 20.8609 18.8594 20.119 18.3124 19.572C17.7655 19.0251 17.0236 18.7178 16.25 18.7178H11.875C11.1015 18.7178 10.3596 19.0251 9.81265 19.572C9.26566 20.119 8.95837 20.8609 8.95837 21.6344V23.0928" stroke="white" stroke-width="1.45833" stroke-linecap="round" stroke-linejoin="round"/>
<path d="M19.1666 10.061C19.7921 10.2232 20.346 10.5884 20.7414 11.0994C21.1368 11.6104 21.3514 12.2382 21.3514 12.8844C21.3514 13.5305 21.1368 14.1583 20.7414 14.6693C20.346 15.1803 19.7921 15.5456 19.1666 15.7077" stroke="white" stroke-width="1.45833" stroke-linecap="round" stroke-linejoin="round"/>
<path d="M23.5416 23.0927V21.6344C23.5411 20.9881 23.3261 20.3604 22.9301 19.8496C22.5342 19.3389 21.9798 18.9741 21.3541 18.8125" stroke="white" stroke-width="1.45833" stroke-linecap="round" stroke-linejoin="round"/>
<path d="M14.0625 15.8011C15.6734 15.8011 16.9792 14.4953 16.9792 12.8844C16.9792 11.2736 15.6734 9.96777 14.0625 9.96777C12.4517 9.96777 11.1459 11.2736 11.1459 12.8844C11.1459 14.4953 12.4517 15.8011 14.0625 15.8011Z" stroke="white" stroke-width="1.45833" stroke-linecap="round" stroke-linejoin="round"/>
</svg>
