<svg width="32" height="32" viewBox="0 0 32 32" fill="none" xmlns="http://www.w3.org/2000/svg">
<rect y="0.0302734" width="31.5" height="31.5" rx="8.75" fill="white" fill-opacity="0.1"/>
<path d="M15.75 23.0721C13.8162 23.0721 11.9615 22.3039 10.5941 20.9364C9.2266 19.569 8.45837 17.7143 8.45837 15.7804C8.45837 13.8466 9.2266 11.9919 10.5941 10.6244C11.9615 9.257 13.8162 8.48877 15.75 8.48877C17.6839 8.48877 19.5386 9.18017 20.906 10.4109C22.2735 11.6416 23.0417 13.3108 23.0417 15.0513C23.0417 16.0182 22.6576 16.9455 21.9739 17.6293C21.2901 18.313 20.3628 18.6971 19.3959 18.6971H17.7552C17.5183 18.6971 17.286 18.7631 17.0844 18.8877C16.8828 19.0123 16.7199 19.1905 16.6139 19.4025C16.5079 19.6144 16.4631 19.8517 16.4844 20.0877C16.5056 20.3238 16.5922 20.5492 16.7344 20.7388L16.9532 21.0304C17.0954 21.22 17.1819 21.4454 17.2032 21.6815C17.2245 21.9175 17.1796 22.1548 17.0737 22.3667C16.9677 22.5787 16.8048 22.7569 16.6032 22.8815C16.4016 23.0061 16.1693 23.0721 15.9323 23.0721H15.75Z" stroke="white" stroke-width="1.45833" stroke-linecap="round" stroke-linejoin="round"/>
<path d="M16.8437 12.1344C17.0451 12.1344 17.2083 11.9712 17.2083 11.7699C17.2083 11.5685 17.0451 11.4053 16.8437 11.4053C16.6424 11.4053 16.4791 11.5685 16.4791 11.7699C16.4791 11.9712 16.6424 12.1344 16.8437 12.1344Z" fill="white" stroke="white" stroke-width="1.45833" stroke-linecap="round" stroke-linejoin="round"/>
<path d="M19.7605 15.0509C19.9618 15.0509 20.125 14.8877 20.125 14.6864C20.125 14.485 19.9618 14.3218 19.7605 14.3218C19.5591 14.3218 19.3959 14.485 19.3959 14.6864C19.3959 14.8877 19.5591 15.0509 19.7605 15.0509Z" fill="white" stroke="white" stroke-width="1.45833" stroke-linecap="round" stroke-linejoin="round"/>
<path d="M11.7396 16.5094C11.9409 16.5094 12.1042 16.3462 12.1042 16.1449C12.1042 15.9435 11.9409 15.7803 11.7396 15.7803C11.5382 15.7803 11.375 15.9435 11.375 16.1449C11.375 16.3462 11.5382 16.5094 11.7396 16.5094Z" fill="white" stroke="white" stroke-width="1.45833" stroke-linecap="round" stroke-linejoin="round"/>
<path d="M13.198 12.8634C13.3993 12.8634 13.5625 12.7002 13.5625 12.4989C13.5625 12.2975 13.3993 12.1343 13.198 12.1343C12.9966 12.1343 12.8334 12.2975 12.8334 12.4989C12.8334 12.7002 12.9966 12.8634 13.198 12.8634Z" fill="white" stroke="white" stroke-width="1.45833" stroke-linecap="round" stroke-linejoin="round"/>
</svg>
