<svg width="14" height="15" viewBox="0 0 14 15" fill="none" xmlns="http://www.w3.org/2000/svg">
<path d="M11.6667 5.89347C11.6667 8.80606 8.43562 11.8394 7.35062 12.7762C7.24955 12.8522 7.12651 12.8933 7.00004 12.8933C6.87357 12.8933 6.75053 12.8522 6.64946 12.7762C5.56446 11.8394 2.33337 8.80606 2.33337 5.89347C2.33337 4.6558 2.82504 3.46881 3.70021 2.59364C4.57538 1.71847 5.76236 1.22681 7.00004 1.22681C8.23772 1.22681 9.4247 1.71847 10.2999 2.59364C11.175 3.46881 11.6667 4.6558 11.6667 5.89347Z" stroke="#D7D7D7" stroke-width="1.16667" stroke-linecap="round" stroke-linejoin="round"/>
<path d="M7 7.64331C7.9665 7.64331 8.75 6.85981 8.75 5.89331C8.75 4.92681 7.9665 4.14331 7 4.14331C6.0335 4.14331 5.25 4.92681 5.25 5.89331C5.25 6.85981 6.0335 7.64331 7 7.64331Z" stroke="#D7D7D7" stroke-width="1.16667" stroke-linecap="round" stroke-linejoin="round"/>
</svg>
